<svg id="visual" viewBox="0 0 960 540" width="960" height="540" xmlns="http://www.w3.org/2000/svg" xmlns:xlink="http://www.w3.org/1999/xlink" version="1.1"><rect x="0" y="0" width="960" height="540" fill="#00000000"></rect><path d="M0 132L137 132L137 153L274 153L274 163L411 163L411 167L549 167L549 138L686 138L686 148L823 148L823 160L960 160L960 161L960 541L960 541L823 541L823 541L686 541L686 541L549 541L549 541L411 541L411 541L274 541L274 541L137 541L137 541L0 541Z" fill="#5a00e0"></path><path d="M0 208L137 208L137 201L274 201L274 191L411 191L411 232L549 232L549 195L686 195L686 235L823 235L823 211L960 211L960 189L960 541L960 541L823 541L823 541L686 541L686 541L549 541L549 541L411 541L411 541L274 541L274 541L137 541L137 541L0 541Z" fill="#5400d0"></path><path d="M0 271L137 271L137 272L274 272L274 230L411 230L411 242L549 242L549 257L686 257L686 262L823 262L823 274L960 274L960 268L960 541L960 541L823 541L823 541L686 541L686 541L549 541L549 541L411 541L411 541L274 541L274 541L137 541L137 541L0 541Z" fill="#4e00c1"></path><path d="M0 311L137 311L137 304L274 304L274 301L411 301L411 288L549 288L549 308L686 308L686 322L823 322L823 311L960 311L960 320L960 541L960 541L823 541L823 541L686 541L686 541L549 541L549 541L411 541L411 541L274 541L274 541L137 541L137 541L0 541Z" fill="#4800b2"></path><path d="M0 337L137 337L137 346L274 346L274 366L411 366L411 344L549 344L549 348L686 348L686 351L823 351L823 370L960 370L960 328L960 541L960 541L823 541L823 541L686 541L686 541L549 541L549 541L411 541L411 541L274 541L274 541L137 541L137 541L0 541Z" fill="#4200a3"></path><path d="M0 399L137 399L137 393L274 393L274 373L411 373L411 413L549 413L549 381L686 381L686 400L823 400L823 375L960 375L960 403L960 541L960 541L823 541L823 541L686 541L686 541L549 541L549 541L411 541L411 541L274 541L274 541L137 541L137 541L0 541Z" fill="#3c0094"></path><path d="M0 431L137 431L137 438L274 438L274 443L411 443L411 426L549 426L549 456L686 456L686 422L823 422L823 430L960 430L960 434L960 541L960 541L823 541L823 541L686 541L686 541L549 541L549 541L411 541L411 541L274 541L274 541L137 541L137 541L0 541Z" fill="#360086"></path><path d="M0 493L137 493L137 482L274 482L274 498L411 498L411 500L549 500L549 473L686 473L686 492L823 492L823 494L960 494L960 474L960 541L960 541L823 541L823 541L686 541L686 541L549 541L549 541L411 541L411 541L274 541L274 541L137 541L137 541L0 541Z" fill="#300078"></path></svg>