{
    "asset" : {
        "generator" : "Khronos glTF Blender I/O v1.6.16",
        "version" : "2.0"
    },
    "scene" : 0,
    "scenes" : [
        {
            "name" : "Scene",
            "nodes" : [
                0,
                1,
                2
            ]
        }
    ],
    "nodes" : [
        {
            "mesh" : 0,
            "name" : "Monitor"
        },
        {
            "mesh" : 1,
            "name" : "Stand"
        },
        {
            "mesh" : 2,
            "name" : "Screen"
        }
    ],
    "materials" : [
        {
            "doubleSided" : true,
            "name" : "Plastic",
            "pbrMetallicRoughness" : {
                "baseColorFactor" : [
                    0.0030954419635236263,
                    0.0030954419635236263,
                    0.0030954419635236263,
                    1
                ],
                "metallicFactor" : 0,
                "roughnessFactor" : 0.9270936250686646
            }
        },
        {
            "doubleSided" : true,
            "emissiveFactor" : [
                1,
                1,
                1
            ],
            "emissiveTexture" : {
                "index" : 0
            },
            "name" : "Screen",
            "pbrMetallicRoughness" : {
                "baseColorFactor" : [
                    0.0030954116955399513,
                    0.0030954116955399513,
                    0.0030954116955399513,
                    1
                ],
                "metallicFactor" : 0,
                "roughnessFactor" : 0
            }
        }
    ],
    "meshes" : [
        {
            "name" : "Cube",
            "primitives" : [
                {
                    "attributes" : {
                        "POSITION" : 0,
                        "NORMAL" : 1,
                        "TEXCOORD_0" : 2
                    },
                    "indices" : 3,
                    "material" : 0
                }
            ]
        },
        {
            "name" : "Cube.001",
            "primitives" : [
                {
                    "attributes" : {
                        "POSITION" : 4,
                        "NORMAL" : 5,
                        "TEXCOORD_0" : 6
                    },
                    "indices" : 7,
                    "material" : 0
                }
            ]
        },
        {
            "name" : "Cube.002",
            "primitives" : [
                {
                    "attributes" : {
                        "POSITION" : 8,
                        "NORMAL" : 9,
                        "TEXCOORD_0" : 10
                    },
                    "indices" : 11,
                    "material" : 1
                }
            ]
        }
    ],
    "textures" : [
        {
            "sampler" : 0,
            "source" : 0
        }
    ],
    "images" : [
        {
            "mimeType" : "image/png",
            "name" : "desktop",
            "uri" : "desktop.png"
        }
    ],
    "accessors" : [
        {
            "bufferView" : 0,
            "componentType" : 5126,
            "count" : 229,
            "max" : [
                -0.002261098474264145,
                0.16500002145767212,
                0.26031556725502014
            ],
            "min" : [
                -0.03275438770651817,
                -0.1510263830423355,
                -0.26031556725502014
            ],
            "type" : "VEC3"
        },
        {
            "bufferView" : 1,
            "componentType" : 5126,
            "count" : 229,
            "type" : "VEC3"
        },
        {
            "bufferView" : 2,
            "componentType" : 5126,
            "count" : 229,
            "type" : "VEC2"
        },
        {
            "bufferView" : 3,
            "componentType" : 5123,
            "count" : 984,
            "type" : "SCALAR"
        },
        {
            "bufferView" : 4,
            "componentType" : 5126,
            "count" : 156,
            "max" : [
                -0.00597892701625824,
                0.05943044275045395,
                0.10750693827867508
            ],
            "min" : [
                -0.16280004382133484,
                -0.22786955535411835,
                -0.10750695317983627
            ],
            "type" : "VEC3"
        },
        {
            "bufferView" : 5,
            "componentType" : 5126,
            "count" : 156,
            "type" : "VEC3"
        },
        {
            "bufferView" : 6,
            "componentType" : 5126,
            "count" : 156,
            "type" : "VEC2"
        },
        {
            "bufferView" : 7,
            "componentType" : 5123,
            "count" : 822,
            "type" : "SCALAR"
        },
        {
            "bufferView" : 8,
            "componentType" : 5126,
            "count" : 4,
            "max" : [
                -0.0036647766828536987,
                0.15707042813301086,
                0.2523859739303589
            ],
            "min" : [
                -0.0036647766828536987,
                -0.14309678971767426,
                -0.2523859739303589
            ],
            "type" : "VEC3"
        },
        {
            "bufferView" : 9,
            "componentType" : 5126,
            "count" : 4,
            "type" : "VEC3"
        },
        {
            "bufferView" : 10,
            "componentType" : 5126,
            "count" : 4,
            "type" : "VEC2"
        },
        {
            "bufferView" : 11,
            "componentType" : 5123,
            "count" : 6,
            "type" : "SCALAR"
        }
    ],
    "bufferViews" : [
        {
            "buffer" : 0,
            "byteLength" : 2748,
            "byteOffset" : 0
        },
        {
            "buffer" : 0,
            "byteLength" : 2748,
            "byteOffset" : 2748
        },
        {
            "buffer" : 0,
            "byteLength" : 1832,
            "byteOffset" : 5496
        },
        {
            "buffer" : 0,
            "byteLength" : 1968,
            "byteOffset" : 7328
        },
        {
            "buffer" : 0,
            "byteLength" : 1872,
            "byteOffset" : 9296
        },
        {
            "buffer" : 0,
            "byteLength" : 1872,
            "byteOffset" : 11168
        },
        {
            "buffer" : 0,
            "byteLength" : 1248,
            "byteOffset" : 13040
        },
        {
            "buffer" : 0,
            "byteLength" : 1644,
            "byteOffset" : 14288
        },
        {
            "buffer" : 0,
            "byteLength" : 48,
            "byteOffset" : 15932
        },
        {
            "buffer" : 0,
            "byteLength" : 48,
            "byteOffset" : 15980
        },
        {
            "buffer" : 0,
            "byteLength" : 32,
            "byteOffset" : 16028
        },
        {
            "buffer" : 0,
            "byteLength" : 12,
            "byteOffset" : 16060
        }
    ],
    "samplers" : [
        {
            "magFilter" : 9729,
            "minFilter" : 9987
        }
    ],
    "buffers" : [
        {
            "byteLength" : 16072,
            "uri" : "monitor.bin"
        }
    ]
}
