{
    "asset" : {
        "generator" : "Khronos glTF Blender I/O v1.6.16",
        "version" : "2.0"
    },
    "scene" : 0,
    "scenes" : [
        {
            "name" : "Scene",
            "nodes" : [
                0,
                1,
                2,
                3,
                4
            ]
        }
    ],
    "nodes" : [
        {
            "mesh" : 0,
            "name" : "Back"
        },
        {
            "mesh" : 1,
            "name" : "Screen"
        },
        {
            "mesh" : 2,
            "name" : "Bezel"
        },
        {
            "mesh" : 3,
            "name" : "Rim"
        },
        {
            "mesh" : 4,
            "name" : "Buttons"
        }
    ],
    "materials" : [
        {
            "doubleSided" : true,
            "name" : "Back",
            "pbrMetallicRoughness" : {
                "baseColorFactor" : [
                    0.2395515739917755,
                    0.2395515739917755,
                    0.2395515739917755,
                    1
                ],
                "metallicFactor" : 0,
                "roughnessFactor" : 0.25
            }
        },
        {
            "doubleSided" : true,
            "name" : "Screen",
            "pbrMetallicRoughness" : {
                "baseColorTexture" : {
                    "index" : 0
                },
                "metallicFactor" : 0,
                "roughnessFactor" : 0
            }
        },
        {
            "doubleSided" : true,
            "name" : "Front",
            "pbrMetallicRoughness" : {
                "baseColorFactor" : [
                    0,
                    0,
                    0,
                    1
                ],
                "metallicFactor" : 0,
                "roughnessFactor" : 0.10000000149011612
            }
        },
        {
            "doubleSided" : true,
            "name" : "Rim",
            "pbrMetallicRoughness" : {
                "baseColorFactor" : [
                    0.03027459606528282,
                    0.029518121853470802,
                    0.031042272225022316,
                    1
                ],
                "metallicFactor" : 0,
                "roughnessFactor" : 0.15000000596046448
            }
        }
    ],
    "meshes" : [
        {
            "name" : "Cube",
            "primitives" : [
                {
                    "attributes" : {
                        "POSITION" : 0,
                        "NORMAL" : 1,
                        "TEXCOORD_0" : 2
                    },
                    "indices" : 3,
                    "material" : 0
                }
            ]
        },
        {
            "name" : "Cube.001",
            "primitives" : [
                {
                    "attributes" : {
                        "POSITION" : 4,
                        "NORMAL" : 5,
                        "TEXCOORD_0" : 6
                    },
                    "indices" : 7,
                    "material" : 1
                }
            ]
        },
        {
            "name" : "Cube.002",
            "primitives" : [
                {
                    "attributes" : {
                        "POSITION" : 8,
                        "NORMAL" : 9,
                        "TEXCOORD_0" : 10
                    },
                    "indices" : 11,
                    "material" : 2
                }
            ]
        },
        {
            "name" : "Cube.003",
            "primitives" : [
                {
                    "attributes" : {
                        "POSITION" : 12,
                        "NORMAL" : 13,
                        "TEXCOORD_0" : 14
                    },
                    "indices" : 15,
                    "material" : 3
                }
            ]
        },
        {
            "name" : "Cube.004",
            "primitives" : [
                {
                    "attributes" : {
                        "POSITION" : 16,
                        "NORMAL" : 17,
                        "TEXCOORD_0" : 18
                    },
                    "indices" : 19,
                    "material" : 3
                }
            ]
        }
    ],
    "textures" : [
        {
            "sampler" : 0,
            "source" : 0
        }
    ],
    "images" : [
        {
            "mimeType" : "image/png",
            "name" : "groen",
            "uri" : "groen.png"
        }
    ],
    "accessors" : [
        {
            "bufferView" : 0,
            "componentType" : 5126,
            "count" : 42,
            "max" : [
                0.07150000333786011,
                0.14670002460479736,
                0.0073999762535095215
            ],
            "min" : [
                -0.07150000333786011,
                -0.14670002460479736,
                0.0073999762535095215
            ],
            "type" : "VEC3"
        },
        {
            "bufferView" : 1,
            "componentType" : 5126,
            "count" : 42,
            "type" : "VEC3"
        },
        {
            "bufferView" : 2,
            "componentType" : 5126,
            "count" : 42,
            "type" : "VEC2"
        },
        {
            "bufferView" : 3,
            "componentType" : 5123,
            "count" : 120,
            "type" : "SCALAR"
        },
        {
            "bufferView" : 4,
            "componentType" : 5126,
            "count" : 38,
            "max" : [
                0.06857036799192429,
                0.13814331591129303,
                -0.0073999762535095215
            ],
            "min" : [
                -0.06857036799192429,
                -0.14377039670944214,
                -0.0073999762535095215
            ],
            "type" : "VEC3"
        },
        {
            "bufferView" : 5,
            "componentType" : 5126,
            "count" : 38,
            "type" : "VEC3"
        },
        {
            "bufferView" : 6,
            "componentType" : 5126,
            "count" : 38,
            "type" : "VEC2"
        },
        {
            "bufferView" : 7,
            "componentType" : 5123,
            "count" : 108,
            "type" : "SCALAR"
        },
        {
            "bufferView" : 8,
            "componentType" : 5126,
            "count" : 196,
            "max" : [
                0.07150000333786011,
                0.14670002460479736,
                -0.005899100564420223
            ],
            "min" : [
                -0.07150000333786011,
                -0.14670002460479736,
                -0.0073999762535095215
            ],
            "type" : "VEC3"
        },
        {
            "bufferView" : 9,
            "componentType" : 5126,
            "count" : 196,
            "type" : "VEC3"
        },
        {
            "bufferView" : 10,
            "componentType" : 5126,
            "count" : 196,
            "type" : "VEC2"
        },
        {
            "bufferView" : 11,
            "componentType" : 5123,
            "count" : 336,
            "type" : "SCALAR"
        },
        {
            "bufferView" : 12,
            "componentType" : 5126,
            "count" : 112,
            "max" : [
                0.07150000333786011,
                0.14670002460479736,
                0.0073999762535095215
            ],
            "min" : [
                -0.07150000333786011,
                -0.14670002460479736,
                -0.0073999762535095215
            ],
            "type" : "VEC3"
        },
        {
            "bufferView" : 13,
            "componentType" : 5126,
            "count" : 112,
            "type" : "VEC3"
        },
        {
            "bufferView" : 14,
            "componentType" : 5126,
            "count" : 112,
            "type" : "VEC2"
        },
        {
            "bufferView" : 15,
            "componentType" : 5123,
            "count" : 378,
            "type" : "SCALAR"
        },
        {
            "bufferView" : 16,
            "componentType" : 5126,
            "count" : 60,
            "max" : [
                0.07448751479387283,
                0.0903022289276123,
                0.003086105454713106
            ],
            "min" : [
                -0.07449337840080261,
                0.045931365340948105,
                -0.003086105454713106
            ],
            "type" : "VEC3"
        },
        {
            "bufferView" : 17,
            "componentType" : 5126,
            "count" : 60,
            "type" : "VEC3"
        },
        {
            "bufferView" : 18,
            "componentType" : 5126,
            "count" : 60,
            "type" : "VEC2"
        },
        {
            "bufferView" : 19,
            "componentType" : 5123,
            "count" : 90,
            "type" : "SCALAR"
        }
    ],
    "bufferViews" : [
        {
            "buffer" : 0,
            "byteLength" : 504,
            "byteOffset" : 0
        },
        {
            "buffer" : 0,
            "byteLength" : 504,
            "byteOffset" : 504
        },
        {
            "buffer" : 0,
            "byteLength" : 336,
            "byteOffset" : 1008
        },
        {
            "buffer" : 0,
            "byteLength" : 240,
            "byteOffset" : 1344
        },
        {
            "buffer" : 0,
            "byteLength" : 456,
            "byteOffset" : 1584
        },
        {
            "buffer" : 0,
            "byteLength" : 456,
            "byteOffset" : 2040
        },
        {
            "buffer" : 0,
            "byteLength" : 304,
            "byteOffset" : 2496
        },
        {
            "buffer" : 0,
            "byteLength" : 216,
            "byteOffset" : 2800
        },
        {
            "buffer" : 0,
            "byteLength" : 2352,
            "byteOffset" : 3016
        },
        {
            "buffer" : 0,
            "byteLength" : 2352,
            "byteOffset" : 5368
        },
        {
            "buffer" : 0,
            "byteLength" : 1568,
            "byteOffset" : 7720
        },
        {
            "buffer" : 0,
            "byteLength" : 672,
            "byteOffset" : 9288
        },
        {
            "buffer" : 0,
            "byteLength" : 1344,
            "byteOffset" : 9960
        },
        {
            "buffer" : 0,
            "byteLength" : 1344,
            "byteOffset" : 11304
        },
        {
            "buffer" : 0,
            "byteLength" : 896,
            "byteOffset" : 12648
        },
        {
            "buffer" : 0,
            "byteLength" : 756,
            "byteOffset" : 13544
        },
        {
            "buffer" : 0,
            "byteLength" : 720,
            "byteOffset" : 14300
        },
        {
            "buffer" : 0,
            "byteLength" : 720,
            "byteOffset" : 15020
        },
        {
            "buffer" : 0,
            "byteLength" : 480,
            "byteOffset" : 15740
        },
        {
            "buffer" : 0,
            "byteLength" : 180,
            "byteOffset" : 16220
        }
    ],
    "samplers" : [
        {
            "magFilter" : 9729,
            "minFilter" : 9987
        }
    ],
    "buffers" : [
        {
            "byteLength" : 16400,
            "uri" : "phone.bin"
        }
    ]
}
