<svg id="visual" viewBox="0 0 900 600" width="900" height="600" xmlns="http://www.w3.org/2000/svg" xmlns:xlink="http://www.w3.org/1999/xlink" version="1.1"><path d="M0 327L15 318.7C30 310.3 60 293.7 90 288.2C120 282.7 150 288.3 180 292.8C210 297.3 240 300.7 270 299.2C300 297.7 330 291.3 360 281.7C390 272 420 259 450 261.2C480 263.3 510 280.7 540 292.3C570 304 600 310 630 313.7C660 317.3 690 318.7 720 312.8C750 307 780 294 810 292.8C840 291.7 870 302.3 885 307.7L900 313" fill="none" stroke="#5B00E5" stroke-width="20" stroke-linecap="round" stroke-linejoin="miter"></path></svg>